# xmcd
#
# Track frame offsets: 
#        151
#        22262
#        38401
#        57315
#        72651
#        92850
#
# Disc length: 1448 seconds
#
# Revision: 0
# Processed by: cddbd v1.5.2PL0 Copyright (c) Steve Scherf et al.
# Submitted via: ExactAudioCopy v0.95b4
#
DISCID=5105a606
DTITLE=TT-Band - Still Too Young To Die
DYEAR=1999
DGENRE=Country
TTITLE0=All You Ever Do Is Bring Me Down
TTITLE1=Where Country Is
TTITLE2=Heartache Tonight
TTITLE3=Doctor
TTITLE4=One Night At The Time
TTITLE5=Old Enough To Know Better
EXTD=
EXTT0=
EXTT1=
EXTT2=
EXTT3=
EXTT4=
EXTT5=
PLAYORDER=
